<mxfile host="app.diagrams.net" agent="Mozilla/5.0 (Windows NT 10.0; Win64; x64) AppleWebKit/537.36 (KHTML, like Gecko) Chrome/130.0.0.0 Safari/537.36 Edg/130.0.0.0" version="24.8.3">
  <diagram name="第 1 页" id="jlVK5qfQyr_egqlrKWcN">
    <mxGraphModel dx="2703" dy="1620" grid="0" gridSize="10" guides="1" tooltips="1" connect="1" arrows="1" fold="1" page="1" pageScale="1" pageWidth="3300" pageHeight="4681" math="0" shadow="0">
      <root>
        <mxCell id="0" />
        <mxCell id="1" parent="0" />
        <mxCell id="gydbtc8NzU2zJaDU4UvF-22" value="" style="rounded=1;whiteSpace=wrap;html=1;dashed=1;dashPattern=1 4;strokeColor=#31CE6B;fillColor=#ECFAFE;" parent="1" vertex="1">
          <mxGeometry x="845" y="579" width="917" height="528" as="geometry" />
        </mxCell>
        <mxCell id="gydbtc8NzU2zJaDU4UvF-52" value="" style="rounded=1;whiteSpace=wrap;html=1;dashed=1;dashPattern=1 4;strokeColor=#666666;fillColor=#ECFAFE;fontColor=#333333;" parent="1" vertex="1">
          <mxGeometry x="234" y="581" width="523" height="684" as="geometry" />
        </mxCell>
        <mxCell id="gydbtc8NzU2zJaDU4UvF-15" value="" style="rounded=1;whiteSpace=wrap;html=1;fillColor=#A5C5F3;strokeColor=#6c8ebf;" parent="1" vertex="1">
          <mxGeometry x="879" y="657" width="457" height="179" as="geometry" />
        </mxCell>
        <mxCell id="gydbtc8NzU2zJaDU4UvF-33" style="edgeStyle=orthogonalEdgeStyle;rounded=0;orthogonalLoop=1;jettySize=auto;html=1;entryX=0.5;entryY=0;entryDx=0;entryDy=0;" parent="1" source="gydbtc8NzU2zJaDU4UvF-1" target="gydbtc8NzU2zJaDU4UvF-21" edge="1">
          <mxGeometry relative="1" as="geometry">
            <Array as="points">
              <mxPoint x="985" y="879" />
              <mxPoint x="1089" y="879" />
            </Array>
          </mxGeometry>
        </mxCell>
        <mxCell id="gydbtc8NzU2zJaDU4UvF-1" value="&lt;font style=&quot;font-size: 22px;&quot;&gt;归一化定义&lt;/font&gt;" style="rounded=1;whiteSpace=wrap;html=1;fillColor=#d5e8d4;strokeColor=#82b366;" parent="1" vertex="1">
          <mxGeometry x="914" y="732" width="142" height="76" as="geometry" />
        </mxCell>
        <mxCell id="gydbtc8NzU2zJaDU4UvF-57" value="" style="rounded=1;whiteSpace=wrap;html=1;dashed=1;dashPattern=1 4;fillColor=#e8f2e8;strokeColor=#24B33C;" parent="1" vertex="1">
          <mxGeometry x="1374" y="632" width="367" height="457" as="geometry" />
        </mxCell>
        <mxCell id="gydbtc8NzU2zJaDU4UvF-62" style="edgeStyle=orthogonalEdgeStyle;rounded=0;orthogonalLoop=1;jettySize=auto;html=1;" parent="1" source="gydbtc8NzU2zJaDU4UvF-2" target="gydbtc8NzU2zJaDU4UvF-16" edge="1">
          <mxGeometry relative="1" as="geometry" />
        </mxCell>
        <mxCell id="gydbtc8NzU2zJaDU4UvF-63" style="edgeStyle=orthogonalEdgeStyle;rounded=0;orthogonalLoop=1;jettySize=auto;html=1;entryX=0;entryY=0.5;entryDx=0;entryDy=0;" parent="1" source="gydbtc8NzU2zJaDU4UvF-2" target="gydbtc8NzU2zJaDU4UvF-17" edge="1">
          <mxGeometry relative="1" as="geometry" />
        </mxCell>
        <mxCell id="gydbtc8NzU2zJaDU4UvF-66" style="edgeStyle=orthogonalEdgeStyle;rounded=0;orthogonalLoop=1;jettySize=auto;html=1;entryX=0;entryY=0.5;entryDx=0;entryDy=0;" parent="1" source="gydbtc8NzU2zJaDU4UvF-2" target="gydbtc8NzU2zJaDU4UvF-19" edge="1">
          <mxGeometry relative="1" as="geometry" />
        </mxCell>
        <mxCell id="8wPl2l_jvZGJgvFwYlYT-5" style="edgeStyle=orthogonalEdgeStyle;rounded=0;orthogonalLoop=1;jettySize=auto;html=1;" edge="1" parent="1" source="gydbtc8NzU2zJaDU4UvF-2" target="gydbtc8NzU2zJaDU4UvF-21">
          <mxGeometry relative="1" as="geometry">
            <Array as="points">
              <mxPoint x="1196" y="879" />
              <mxPoint x="1089" y="879" />
            </Array>
          </mxGeometry>
        </mxCell>
        <mxCell id="gydbtc8NzU2zJaDU4UvF-2" value="&lt;font style=&quot;font-size: 22px;&quot;&gt;人格-价值对齐大模型&lt;/font&gt;" style="rounded=1;whiteSpace=wrap;html=1;fillColor=#d5e8d4;strokeColor=#82b366;" parent="1" vertex="1">
          <mxGeometry x="1076" y="733.5" width="239" height="73" as="geometry" />
        </mxCell>
        <mxCell id="gydbtc8NzU2zJaDU4UvF-47" style="edgeStyle=orthogonalEdgeStyle;rounded=0;orthogonalLoop=1;jettySize=auto;html=1;entryX=0.5;entryY=0;entryDx=0;entryDy=0;" parent="1" source="gydbtc8NzU2zJaDU4UvF-3" target="gydbtc8NzU2zJaDU4UvF-13" edge="1">
          <mxGeometry relative="1" as="geometry" />
        </mxCell>
        <mxCell id="gydbtc8NzU2zJaDU4UvF-3" value="&lt;font style=&quot;font-size: 28px;&quot;&gt;综述&lt;/font&gt;" style="rounded=1;whiteSpace=wrap;html=1;fillColor=#A5C5F3;" parent="1" vertex="1">
          <mxGeometry x="408.5" y="657" width="155" height="72" as="geometry" />
        </mxCell>
        <mxCell id="gydbtc8NzU2zJaDU4UvF-7" value="&lt;font style=&quot;font-size: 22px;&quot;&gt;“人格”定义&lt;/font&gt;" style="rounded=1;whiteSpace=wrap;html=1;fillColor=#FDA96D;strokeColor=#d79b00;" parent="1" vertex="1">
          <mxGeometry x="426" y="1129" width="120" height="60" as="geometry" />
        </mxCell>
        <mxCell id="gydbtc8NzU2zJaDU4UvF-8" value="性格的分类准则和归一共性，如mbti、8种性格" style="text;whiteSpace=wrap;fontSize=14;" parent="1" vertex="1">
          <mxGeometry x="406" y="1195" width="197" height="36" as="geometry" />
        </mxCell>
        <mxCell id="gydbtc8NzU2zJaDU4UvF-9" value="大模型个性化人格-价值对齐操作，即大模型如何使用这些个性化信息" style="text;whiteSpace=wrap;fontSize=14;" parent="1" vertex="1">
          <mxGeometry x="254" y="1069" width="161" height="36" as="geometry" />
        </mxCell>
        <mxCell id="gydbtc8NzU2zJaDU4UvF-10" value="&lt;font style=&quot;font-size: 22px;&quot;&gt;“价值”对齐&lt;/font&gt;" style="rounded=1;whiteSpace=wrap;html=1;fillColor=#F36A5E;strokeColor=#b85450;" parent="1" vertex="1">
          <mxGeometry x="264" y="990" width="120" height="60" as="geometry" />
        </mxCell>
        <mxCell id="gydbtc8NzU2zJaDU4UvF-11" value="&lt;font style=&quot;font-size: 22px;&quot;&gt;多模态的个性化&lt;/font&gt;" style="rounded=1;whiteSpace=wrap;html=1;fillColor=#F2C66E;strokeColor=#d6b656;" parent="1" vertex="1">
          <mxGeometry x="558" y="990" width="177" height="60" as="geometry" />
        </mxCell>
        <mxCell id="gydbtc8NzU2zJaDU4UvF-12" value="关注个性化的输入和输出在多模态上的应用" style="text;whiteSpace=wrap;fontSize=14;" parent="1" vertex="1">
          <mxGeometry x="578" y="1071" width="159" height="36" as="geometry" />
        </mxCell>
        <mxCell id="gydbtc8NzU2zJaDU4UvF-48" style="edgeStyle=orthogonalEdgeStyle;rounded=0;orthogonalLoop=1;jettySize=auto;html=1;entryX=0.5;entryY=0;entryDx=0;entryDy=0;" parent="1" source="gydbtc8NzU2zJaDU4UvF-13" target="gydbtc8NzU2zJaDU4UvF-10" edge="1">
          <mxGeometry relative="1" as="geometry" />
        </mxCell>
        <mxCell id="gydbtc8NzU2zJaDU4UvF-49" style="edgeStyle=orthogonalEdgeStyle;rounded=0;orthogonalLoop=1;jettySize=auto;html=1;" parent="1" source="gydbtc8NzU2zJaDU4UvF-13" target="gydbtc8NzU2zJaDU4UvF-7" edge="1">
          <mxGeometry relative="1" as="geometry" />
        </mxCell>
        <mxCell id="gydbtc8NzU2zJaDU4UvF-50" style="edgeStyle=orthogonalEdgeStyle;rounded=0;orthogonalLoop=1;jettySize=auto;html=1;" parent="1" source="gydbtc8NzU2zJaDU4UvF-13" target="gydbtc8NzU2zJaDU4UvF-11" edge="1">
          <mxGeometry relative="1" as="geometry" />
        </mxCell>
        <mxCell id="gydbtc8NzU2zJaDU4UvF-13" value="&lt;font style=&quot;font-size: 21px;&quot;&gt;论文池搭建&lt;/font&gt;" style="rounded=1;whiteSpace=wrap;html=1;fillColor=#d5e8d4;strokeColor=#82b366;" parent="1" vertex="1">
          <mxGeometry x="417.5" y="795" width="137" height="70" as="geometry" />
        </mxCell>
        <mxCell id="gydbtc8NzU2zJaDU4UvF-24" style="edgeStyle=orthogonalEdgeStyle;rounded=0;orthogonalLoop=1;jettySize=auto;html=1;" parent="1" source="gydbtc8NzU2zJaDU4UvF-16" target="gydbtc8NzU2zJaDU4UvF-17" edge="1">
          <mxGeometry relative="1" as="geometry" />
        </mxCell>
        <mxCell id="gydbtc8NzU2zJaDU4UvF-16" value="&lt;font color=&quot;#000000&quot; style=&quot;font-size: 22px;&quot;&gt;模型复现&lt;/font&gt;" style="rounded=1;whiteSpace=wrap;html=1;fillColor=#F36A5E;fontColor=#ffffff;strokeColor=#B20000;" parent="1" vertex="1">
          <mxGeometry x="1463" y="684" width="120" height="60" as="geometry" />
        </mxCell>
        <mxCell id="gydbtc8NzU2zJaDU4UvF-25" style="edgeStyle=orthogonalEdgeStyle;rounded=0;orthogonalLoop=1;jettySize=auto;html=1;" parent="1" source="gydbtc8NzU2zJaDU4UvF-17" target="gydbtc8NzU2zJaDU4UvF-19" edge="1">
          <mxGeometry relative="1" as="geometry" />
        </mxCell>
        <mxCell id="gydbtc8NzU2zJaDU4UvF-17" value="&lt;font style=&quot;font-size: 22px;&quot;&gt;模型设计&lt;/font&gt;" style="rounded=1;whiteSpace=wrap;html=1;fillColor=#FDA96D;fontColor=#000000;strokeColor=#C73500;" parent="1" vertex="1">
          <mxGeometry x="1463" y="805" width="120" height="60" as="geometry" />
        </mxCell>
        <mxCell id="gydbtc8NzU2zJaDU4UvF-19" value="&lt;font style=&quot;font-size: 22px;&quot;&gt;实验验证&lt;/font&gt;" style="rounded=1;whiteSpace=wrap;html=1;fillColor=#F2C66E;fontColor=#000000;strokeColor=#BD7000;" parent="1" vertex="1">
          <mxGeometry x="1463" y="946" width="120" height="60" as="geometry" />
        </mxCell>
        <mxCell id="gydbtc8NzU2zJaDU4UvF-21" value="&lt;font style=&quot;font-size: 22px;&quot;&gt;什么是用户人格&lt;/font&gt;" style="rounded=1;whiteSpace=wrap;html=1;fillColor=#F36A5E;strokeColor=#b85450;" parent="1" vertex="1">
          <mxGeometry x="968" y="949" width="242" height="60" as="geometry" />
        </mxCell>
        <mxCell id="gydbtc8NzU2zJaDU4UvF-27" value="" style="shape=flexArrow;endArrow=classic;html=1;rounded=0;width=27.5;endSize=34.833333333333336;fillColor=#dae8fc;strokeColor=#6c8ebf;" parent="1" edge="1">
          <mxGeometry width="50" height="50" relative="1" as="geometry">
            <mxPoint x="714" y="877" as="sourcePoint" />
            <mxPoint x="927" y="877" as="targetPoint" />
          </mxGeometry>
        </mxCell>
        <mxCell id="gydbtc8NzU2zJaDU4UvF-28" value="&lt;font style=&quot;font-size: 28px;&quot;&gt;模型与架构呈现&lt;/font&gt;" style="text;html=1;align=center;verticalAlign=middle;whiteSpace=wrap;rounded=0;" parent="1" vertex="1">
          <mxGeometry x="1005" y="673" width="222" height="30" as="geometry" />
        </mxCell>
        <mxCell id="gydbtc8NzU2zJaDU4UvF-29" value="&lt;font style=&quot;font-size: 28px;&quot;&gt;未来展望&lt;/font&gt;" style="rounded=1;whiteSpace=wrap;html=1;fillColor=#e1d5e7;strokeColor=#9673a6;dashed=1;dashPattern=1 4;" parent="1" vertex="1">
          <mxGeometry x="854" y="1169" width="899" height="80" as="geometry" />
        </mxCell>
        <mxCell id="gydbtc8NzU2zJaDU4UvF-36" value="负责人：朱子林" style="text;html=1;align=center;verticalAlign=middle;whiteSpace=wrap;rounded=0;" parent="1" vertex="1">
          <mxGeometry x="1526" y="649" width="115" height="30" as="geometry" />
        </mxCell>
        <mxCell id="gydbtc8NzU2zJaDU4UvF-37" value="负责人：朱子林" style="text;html=1;align=center;verticalAlign=middle;whiteSpace=wrap;rounded=0;" parent="1" vertex="1">
          <mxGeometry x="1526" y="916" width="115" height="30" as="geometry" />
        </mxCell>
        <mxCell id="gydbtc8NzU2zJaDU4UvF-38" value="负责人：陈铭锐" style="text;html=1;align=center;verticalAlign=middle;whiteSpace=wrap;rounded=0;" parent="1" vertex="1">
          <mxGeometry x="1531" y="775" width="115" height="30" as="geometry" />
        </mxCell>
        <mxCell id="gydbtc8NzU2zJaDU4UvF-39" value="负责人：袁奕晨" style="text;html=1;align=center;verticalAlign=middle;whiteSpace=wrap;rounded=0;" parent="1" vertex="1">
          <mxGeometry x="1095" y="916" width="115" height="30" as="geometry" />
        </mxCell>
        <mxCell id="gydbtc8NzU2zJaDU4UvF-40" value="针对目前的工作对于《个性化采取的操作》&#xa;提出一个对于《人格》归一化的定义" style="text;whiteSpace=wrap;fontSize=14;" parent="1" vertex="1">
          <mxGeometry x="1044" y="1019" width="271" height="58" as="geometry" />
        </mxCell>
        <mxCell id="gydbtc8NzU2zJaDU4UvF-41" value="针对我们设计的模型架构，为了验证我们改进的有效性，完成实验设计，环境部署及实验的实施" style="text;whiteSpace=wrap;fontSize=14;" parent="1" vertex="1">
          <mxGeometry x="1591" y="941" width="128" height="36" as="geometry" />
        </mxCell>
        <mxCell id="gydbtc8NzU2zJaDU4UvF-42" value="提出改进方向，完成模型的设计与搭建" style="text;whiteSpace=wrap;fontSize=14;" parent="1" vertex="1">
          <mxGeometry x="1596" y="816.5" width="118" height="27" as="geometry" />
        </mxCell>
        <mxCell id="gydbtc8NzU2zJaDU4UvF-43" value="通过复现现有的模型加深理解，同时保证本文综述部分的可靠性和可信度" style="text;whiteSpace=wrap;fontSize=14;" parent="1" vertex="1">
          <mxGeometry x="1596" y="684" width="140" height="78" as="geometry" />
        </mxCell>
        <mxCell id="gydbtc8NzU2zJaDU4UvF-44" value="负责人：张益宁" style="text;html=1;align=center;verticalAlign=middle;whiteSpace=wrap;rounded=0;" parent="1" vertex="1">
          <mxGeometry x="510" y="769" width="115" height="30" as="geometry" />
        </mxCell>
        <mxCell id="gydbtc8NzU2zJaDU4UvF-45" value="负责人：张益宁" style="text;html=1;align=center;verticalAlign=middle;whiteSpace=wrap;rounded=0;" parent="1" vertex="1">
          <mxGeometry x="1197.5" y="622" width="115" height="30" as="geometry" />
        </mxCell>
        <mxCell id="gydbtc8NzU2zJaDU4UvF-54" value="负责人：陈荣鑫" style="text;html=1;align=center;verticalAlign=middle;whiteSpace=wrap;rounded=0;" parent="1" vertex="1">
          <mxGeometry x="266.5" y="919" width="115" height="30" as="geometry" />
        </mxCell>
        <mxCell id="gydbtc8NzU2zJaDU4UvF-55" value="负责人：马杰琼" style="text;html=1;align=center;verticalAlign=middle;whiteSpace=wrap;rounded=0;" parent="1" vertex="1">
          <mxGeometry x="426" y="1093" width="115" height="30" as="geometry" />
        </mxCell>
        <mxCell id="gydbtc8NzU2zJaDU4UvF-56" value="负责人：&lt;span style=&quot;background-color: initial;&quot;&gt;&amp;nbsp;&lt;/span&gt;&lt;span style=&quot;background-color: initial;&quot;&gt;金梨银&lt;/span&gt;" style="text;html=1;align=center;verticalAlign=middle;whiteSpace=wrap;rounded=0;" parent="1" vertex="1">
          <mxGeometry x="589" y="919" width="115" height="30" as="geometry" />
        </mxCell>
        <mxCell id="gydbtc8NzU2zJaDU4UvF-58" value="&lt;span style=&quot;font-size: 28px;&quot;&gt;模型一体化部署&lt;/span&gt;" style="text;html=1;align=center;verticalAlign=middle;whiteSpace=wrap;rounded=0;" parent="1" vertex="1">
          <mxGeometry x="1454" y="1044" width="218" height="30" as="geometry" />
        </mxCell>
        <mxCell id="8wPl2l_jvZGJgvFwYlYT-3" value="" style="shape=flexArrow;endArrow=classic;html=1;rounded=0;fillColor=#e1d5e7;strokeColor=#9673a6;" edge="1" parent="1">
          <mxGeometry width="50" height="50" relative="1" as="geometry">
            <mxPoint x="780" y="1208.64" as="sourcePoint" />
            <mxPoint x="839" y="1208.64" as="targetPoint" />
          </mxGeometry>
        </mxCell>
        <mxCell id="8wPl2l_jvZGJgvFwYlYT-4" value="" style="shape=flexArrow;endArrow=classic;html=1;rounded=0;fillColor=#e1d5e7;strokeColor=#9673a6;" edge="1" parent="1">
          <mxGeometry width="50" height="50" relative="1" as="geometry">
            <mxPoint x="1303.2" y="1111" as="sourcePoint" />
            <mxPoint x="1303.2" y="1165" as="targetPoint" />
          </mxGeometry>
        </mxCell>
      </root>
    </mxGraphModel>
  </diagram>
</mxfile>
